<svg width="30" height="30" viewBox="0 0 40 40" fill="none" xmlns="http://www.w3.org/2000/svg">
<path d="M20 12C24.5194 12 28.2855 15.5 28.2855 20C28.2855 24.5 24.5194 28 20 28C15.4806 28 11.7145 24.5 11.7145 20C11.7145 15.5 15.4806 12 20 12ZM20 16C17.7403 16 15.9828 17.75 15.9828 20C15.9828 22.25 17.7403 24 20 24C22.2597 24 24.0172 22.25 24.0172 20C24.0172 17.75 22.2597 16 20 16ZM15.9828 40C15.4806 40 14.9785 39.75 14.9785 39.25L14.2252 34C12.9698 33.5 11.7145 32.75 10.7102 32L5.68861 34C5.18646 34.25 4.68431 34 4.43323 33.5L0.415998 26.5C-0.086156 26 -0.086156 25.5 0.415998 25.25L4.68431 22L4.43323 20L4.68431 18L0.415998 14.75C-0.086156 14.5 -0.086156 14 0.164921 13.5L4.18215 6.5C4.43323 6 4.93538 6 5.43754 6L10.4591 8C11.4634 7.25 12.7188 6.5 13.9742 6L14.7274 0.75C14.9785 0.25 15.2295 0 15.9828 0H24.2683C24.7705 0 25.2726 0.25 25.2726 0.75L26.0258 6C27.2812 6.5 28.5366 7.25 29.5409 8L34.5625 6C35.0646 5.75 35.5668 6 35.8179 6.5L39.8351 13.5C40.0862 14 40.0862 14.5 39.584 14.75L35.3157 18L35.5668 20L35.3157 22L39.584 25.25C40.0862 25.5 40.0862 26 39.8351 26.5L35.8179 33.5C35.5668 34 35.0646 34 34.5625 34L29.5409 32C28.5366 32.75 27.2812 33.5 26.0258 34L25.2726 39.25C25.2726 39.75 24.7705 40 24.2683 40H15.9828ZM18.4935 4L17.7403 9.25C15.2295 9.75 12.9698 11 11.4634 12.75L6.44184 10.75L4.93538 13.25L9.20369 16.25C8.45046 18.5 8.45046 21.25 9.20369 23.5L4.93538 26.75L6.44184 29.25L11.4634 27.25C12.9698 29 15.2295 30.25 17.7403 30.75L18.4935 36H21.5065L22.2597 30.75C24.7705 30.25 26.7791 29 28.5366 27.25L33.5582 29.25L35.0646 26.75L30.7963 23.75C31.5495 21.5 31.5495 18.75 30.7963 16.5L35.0646 13.25L33.5582 10.75L28.5366 12.75C27.0302 11 24.7705 9.75 22.2597 9.25L21.5065 4H18.4935Z" fill="white"/>
</svg>
