<svg width="32" height="276" viewBox="0 0 32 276" fill="none" xmlns="http://www.w3.org/2000/svg">
<path d="M13.5685 3.7059L15.9497 1L18.3307 3.70576C19.2473 4.74734 19.7531 6.08739 19.7531 7.47484L31 16.5866V18.1153L21.6548 16.2136H19.7531C19.7531 16.2136 19.3718 20.3724 18.7621 22.9676L23.4496 26.3125V29.125H16.7127C16.2741 30.2418 15.9497 31 15.9497 31C15.9497 31 15.6036 30.2275 15.152 29.125H8.44965V26.3125L13.1371 22.9676L12.1463 16.2626L10.2446 16.2136L1 18.1153V16.5866L12.1463 7.47484C12.1463 6.08738 12.6519 4.74748 13.5685 3.7059Z" fill="#39164A"/>
<path d="M13.1371 22.9676C12.7502 20.3492 12.5332 18.8811 12.1463 16.2626M13.1371 22.9676C13.3779 24.597 14.4081 27.3088 15.152 29.125M13.1371 22.9676L8.44965 26.3125V29.125H15.152M18.7621 22.9676C19.3718 20.3724 19.7531 16.2136 19.7531 16.2136M18.7621 22.9676L23.4496 26.3125V29.125H16.7127M18.7621 22.9676C18.3043 24.9168 17.3774 27.4327 16.7127 29.125M19.7531 7.47484C19.7531 6.08739 19.2473 4.74734 18.3307 3.70576C17.577 2.8492 16.8957 2.075 15.9497 1L13.5685 3.7059C12.6519 4.74748 12.1463 6.08738 12.1463 7.47484M19.7531 7.47484V16.2136M19.7531 7.47484L31 16.5866V18.1153L21.6548 16.2136H19.7531M12.1463 7.47484L1 16.5866V18.1153L10.2446 16.2136L12.1463 16.2626M12.1463 7.47484V16.2626M16.7127 29.125C16.2741 30.2418 15.9497 31 15.9497 31C15.9497 31 15.6036 30.2275 15.152 29.125" stroke="url(#paint0_linear_233_2144)" stroke-width="2" stroke-linecap="round" stroke-linejoin="round"/>
<line x1="16.5" y1="48.5" x2="16.5" y2="275.5" stroke="url(#paint1_linear_233_2144)" stroke-linecap="round" stroke-dasharray="5 5"/>
<defs>
<linearGradient id="paint0_linear_233_2144" x1="16" y1="1" x2="16" y2="31" gradientUnits="userSpaceOnUse">
<stop stop-color="#A440D2"/>
<stop offset="1" stop-color="#39164A"/>
</linearGradient>
<linearGradient id="paint1_linear_233_2144" x1="15.5" y1="48" x2="15.5" y2="276" gradientUnits="userSpaceOnUse">
<stop stop-color="#A440D2"/>
<stop offset="1" stop-color="#39164A"/>
</linearGradient>
</defs>
</svg>
