<svg width="20" height="20" viewBox="0 0 40 40" fill="none" xmlns="http://www.w3.org/2000/svg">
<path d="M20.2536 2.23922C15.224 2.19038 10.3799 4.05194 6.78592 7.41479C3.19191 10.7776 1.14208 15.3666 1.08691 20.1731C1.10629 23.9717 2.38492 27.6666 4.73914 30.7273C7.09337 33.7879 10.402 36.0567 14.1899 37.2079C15.1483 37.3744 15.4968 36.8249 15.4968 36.342V33.2947C10.1649 34.3771 9.03237 30.8969 9.03237 30.8969C8.67743 29.8043 7.92285 28.8704 6.90661 28.2659C5.16419 27.1669 7.046 27.1835 7.046 27.1835C7.64828 27.2605 8.2245 27.4667 8.73147 27.7868C9.23843 28.107 9.66298 28.5326 9.97328 29.0319C10.514 29.9279 11.4013 30.5853 12.4441 30.8625C13.4869 31.1396 14.6018 31.0145 15.549 30.5139C15.6464 29.602 16.0785 28.7525 16.7687 28.116C12.5172 27.6664 8.05661 26.1345 8.05661 19.2573C8.01859 17.4634 8.71218 15.7256 9.9907 14.4116C9.40843 12.8715 9.47718 11.1751 10.1824 9.68255C10.1824 9.68255 11.8028 9.19965 15.4096 11.5142C18.5495 10.7162 21.8531 10.7162 24.993 11.5142C28.6521 9.19965 30.2202 9.68255 30.2202 9.68255C30.9254 11.1751 30.9942 12.8715 30.4119 14.4116C31.7201 15.7016 32.4513 17.4276 32.4505 19.224C32.4505 26.1178 27.9551 27.6331 23.7384 28.0827C24.2001 28.5111 24.5568 29.032 24.7827 29.6078C25.0087 30.1836 25.0984 30.8002 25.0452 31.4131V36.3253C25.0452 36.9081 25.3937 37.3744 26.3521 37.1912C30.1292 36.0329 33.4268 33.7636 35.7737 30.7073C38.1206 27.651 39.3969 23.9641 39.4202 20.1731C39.3651 15.3666 37.3152 10.7776 33.7212 7.41479C30.1272 4.05194 25.2831 2.19038 20.2536 2.23922Z" fill="#FFFBFB"/>
</svg>
