<svg width="32" height="33" viewBox="0 0 32 33" fill="none" xmlns="http://www.w3.org/2000/svg">
<path d="M13.5685 4.14145L15.9497 1.43555L18.3307 4.1413C19.2473 5.18288 19.7531 6.52293 19.7531 7.91039L31 17.0221V18.5508L21.6548 16.6491H19.7531C19.7531 16.6491 19.3718 20.808 18.7621 23.4032L23.4496 26.748V29.5605H16.7127C16.2741 30.6774 15.9497 31.4355 15.9497 31.4355C15.9497 31.4355 15.6036 30.6631 15.152 29.5605H8.44965V26.748L13.1371 23.4032L12.1463 16.6982L10.2446 16.6491L1 18.5508V17.0221L12.1463 7.91039C12.1463 6.52293 12.6519 5.18303 13.5685 4.14145Z" fill="#39164A"/>
<path d="M13.1371 23.4032C12.7502 20.7847 12.5332 19.3166 12.1463 16.6982M13.1371 23.4032C13.3779 25.0326 14.4081 27.7443 15.152 29.5605M13.1371 23.4032L8.44965 26.748V29.5605H15.152M18.7621 23.4032C19.3718 20.808 19.7531 16.6491 19.7531 16.6491M18.7621 23.4032L23.4496 26.748V29.5605H16.7127M18.7621 23.4032C18.3043 25.3524 17.3774 27.8682 16.7127 29.5605M19.7531 7.91039C19.7531 6.52293 19.2473 5.18288 18.3307 4.1413C17.577 3.28474 16.8957 2.51055 15.9497 1.43555L13.5685 4.14145C12.6519 5.18303 12.1463 6.52293 12.1463 7.91039M19.7531 7.91039V16.6491M19.7531 7.91039L31 17.0221V18.5508L21.6548 16.6491H19.7531M12.1463 7.91039L1 17.0221V18.5508L10.2446 16.6491L12.1463 16.6982M12.1463 7.91039V16.6982M16.7127 29.5605C16.2741 30.6774 15.9497 31.4355 15.9497 31.4355C15.9497 31.4355 15.6036 30.6631 15.152 29.5605" stroke="url(#paint0_linear_686_11183)" stroke-width="2" stroke-linecap="round" stroke-linejoin="round"/>
<defs>
<linearGradient id="paint0_linear_686_11183" x1="16" y1="1.43555" x2="16" y2="31.4355" gradientUnits="userSpaceOnUse">
<stop stop-color="#A440D2"/>
<stop offset="1" stop-color="#39164A"/>
</linearGradient>
</defs>
</svg>
