<svg width="40" height="40" viewBox="0 0 40 40" fill="none" xmlns="http://www.w3.org/2000/svg">
<path d="M36.3699 0.0250244C36.3284 0.0216675 36.2933 0 36.25 0H18.3334C15.5768 0 13.3334 2.24335 13.3334 5V6.66657C13.3334 7.58667 14.0799 8.33344 15 8.33344C15.9201 8.33344 16.6666 7.58667 16.6666 6.66657V5C16.6666 4.08173 17.4149 3.33344 18.3334 3.33344H26.0983L25.5899 3.50342C24.2401 3.97003 23.3334 5.2417 23.3334 6.66657V31.6666H18.3334C17.4149 31.6666 16.6666 30.9183 16.6666 30V26.6666C16.6666 25.7468 15.9201 25 15 25C14.0799 25 13.3334 25.7468 13.3334 26.6666V30C13.3334 32.7567 15.5768 35 18.3334 35H23.3334V36.6666C23.3334 38.5049 24.8282 40 26.6666 40C27.0233 40 27.3618 39.9484 27.7283 39.8349L37.7417 36.4966C39.0933 36.03 40 34.7583 40 33.3334V3.33344C40 1.39008 38.3249 -0.133362 36.3699 0.0250244Z" fill="white"/>
<path d="M17.8448 15.4883L11.1783 8.82172C10.7016 8.34503 9.98505 8.2016 9.36157 8.46008C8.73993 8.71826 8.33344 9.32679 8.33344 10V15H1.66657C0.746765 15 0 15.7468 0 16.6666C0 17.5867 0.746765 18.3334 1.66657 18.3334H8.33344V23.3334C8.33344 24.0067 8.73993 24.6149 9.36157 24.8734C9.98505 25.1315 10.7016 24.9884 11.1783 24.5117L17.8448 17.8449C18.4967 17.1933 18.4967 16.1401 17.8448 15.4883Z" fill="white"/>
</svg>
