<svg width="25" height="25" viewBox="0 0 48 48" fill="none" xmlns="http://www.w3.org/2000/svg">
<path d="M14.25 23.6949V18.2679" stroke="#E8E9EB" stroke-linecap="round" stroke-linejoin="round" stroke-width="2.5"/>
<path d="M11.537 20.9809H16.963" stroke="#E8E9EB" stroke-linecap="round" stroke-linejoin="round" stroke-width="2.5"/>
<path d="M17.187 13.6919V12.0789C17.187 11.4989 16.716 11.0269 16.135 11.0269H12.365C11.785 11.0269 11.313 11.4979 11.313 12.0789V13.8489" stroke="#E8E9EB" stroke-linecap="round" stroke-linejoin="round" stroke-width="2.5"/>
<path d="M29.044 27.7358L33.597 34.5658C34.2939 35.61 35.3326 36.379 36.5346 36.7409C37.7367 37.1028 39.0273 37.035 40.1848 36.5491C41.3423 36.0631 42.2946 35.1895 42.8782 34.078C43.4618 32.9665 43.6403 31.6866 43.383 30.4578C42.399 25.7878 41.614 21.4318 40.811 18.4758C39.965 15.3628 36.927 13.1958 33.527 13.1958C31.475 13.1958 29.615 14.0058 28.239 15.3188H19.761C18.3385 13.9556 16.4443 13.1946 14.474 13.1948C11.073 13.1948 8.03405 15.3628 7.18905 18.4748C6.38605 21.4318 5.60105 25.7878 4.61705 30.4578C4.35959 31.6868 4.53803 32.967 5.12172 34.0787C5.70542 35.1904 6.65794 36.0642 7.81575 36.55C8.97355 37.0359 10.2644 37.1035 11.4666 36.7412C12.6688 36.379 13.7074 35.6095 14.404 34.5648L18.957 27.7348L29.044 27.7358Z" stroke="#E8E9EB" stroke-linecap="round" stroke-linejoin="round" stroke-width="2.5"/>
<path d="M30.813 13.6919V12.0789C30.813 11.4989 31.284 11.0269 31.865 11.0269H35.635C36.215 11.0269 36.687 11.4979 36.687 12.0789V13.8489" stroke="#E8E9EB" stroke-linecap="round" stroke-linejoin="round" stroke-width="2.5"/>
<path d="M31.03 21.731C31.4442 21.731 31.78 21.3952 31.78 20.981C31.78 20.5667 31.4442 20.231 31.03 20.231C30.6158 20.231 30.28 20.5667 30.28 20.981C30.28 21.3952 30.6158 21.731 31.03 21.731Z" fill="#E8E9EB"/>
<path d="M36.463 21.731C36.8772 21.731 37.213 21.3952 37.213 20.981C37.213 20.5667 36.8772 20.231 36.463 20.231C36.0488 20.231 35.713 20.5667 35.713 20.981C35.713 21.3952 36.0488 21.731 36.463 21.731Z" fill="#E8E9EB"/>
<path d="M33.75 19.0181C34.1642 19.0181 34.5 18.6823 34.5 18.2681C34.5 17.8539 34.1642 17.5181 33.75 17.5181C33.3358 17.5181 33 17.8539 33 18.2681C33 18.6823 33.3358 19.0181 33.75 19.0181Z" fill="#E8E9EB"/>
<path d="M33.75 24.4802C34.1835 24.4802 34.535 24.1287 34.535 23.6952C34.535 23.2616 34.1835 22.9102 33.75 22.9102C33.3164 22.9102 32.965 23.2616 32.965 23.6952C32.965 24.1287 33.3164 24.4802 33.75 24.4802Z" fill="#E8E9EB"/>
</svg>
