<!DOCTYPE svg PUBLIC "-//W3C//DTD SVG 1.1//EN" "http://www.w3.org/Graphics/SVG/1.1/DTD/svg11.dtd"> <svg width="521px" height="521px" version="1.1" baseProfile="full" xmlns="http://www.w3.org/2000/svg" xmlns:xlink="http://www.w3.org/1999/xlink" xmlns:ev="http://www.w3.org/2001/xml-events"><defs><linearGradient x1="41.97721822541966%" x2="44.56654676258992%" y1="67.79239690721649%" y2="67.79239690721649%" id="left-inner-eye-gradient" gradientUnits="userSpaceOnUse"><stop stop-color="#BA86F3"></stop><stop offset="0.5281" stop-color="#B786F4"></stop><stop offset="0.8987" stop-color="#AE86F5"></stop><stop offset="1" stop-color="#AA86F6"></stop></linearGradient><linearGradient x1="56.72805755395684%" x2="56.72805755395684%" y1="81.08904639175258%" y2="54.49574742268041%" id="right-inner-eye-gradient" gradientUnits="userSpaceOnUse"><stop stop-color="#BA86F3"></stop><stop offset="0.5281" stop-color="#B786F4"></stop><stop offset="0.8987" stop-color="#AE86F5"></stop><stop offset="1" stop-color="#AA86F6"></stop></linearGradient><linearGradient x1="25.107913669064747%" x2="25.107913669064747%" y1="72.68865979381442%" y2="89.44690721649484%" id="left-middle-cheek-gradient" gradientUnits="userSpaceOnUse"><stop stop-color="#6848BA"></stop><stop offset="0.3363" stop-color="#6356D5"></stop></linearGradient><linearGradient x1="74.89208633093526%" x2="74.89208633093526%" y1="51.32938144329896%" y2="94.76301546391753%" id="right-middle-cheek-gradient" gradientUnits="userSpaceOnUse"><stop stop-color="#6848BA"></stop><stop offset="0.3363" stop-color="#6356D5"></stop></linearGradient><linearGradient x1="67.00671462829736%" x2="67.00671462829736%" y1="30.13930412371134%" y2="54.49561855670103%" id="right-forehead-gradient" gradientUnits="userSpaceOnUse"><stop stop-color="#DC69E6"></stop><stop offset="1" stop-color="#C289F3"></stop></linearGradient><linearGradient x1="32.99340527577938%" x2="32.99340527577938%" y1="30.13930412371134%" y2="54.49561855670103%" id="left-forehead-gradient" gradientUnits="userSpaceOnUse"><stop stop-color="#DC69E6"></stop><stop offset="1" stop-color="#C289F3"></stop></linearGradient><linearGradient x1="95.056858513189448%" x2="57.31654676258992%" y1="15.06958762886598%" y2="15.06958762886598%" id="right-top-ear-gradient" gradientUnits="userSpaceOnUse"><stop stop-color="#BB65ED"></stop><stop offset="1" stop-color="#E560E3"></stop></linearGradient><linearGradient x1="4.943141486810552%" x2="42.68345323741008%" y1="15.06958762886598%" y2="15.06958762886598%" id="left-top-ear-gradient" gradientUnits="userSpaceOnUse"><stop stop-color="#BB65ED"></stop><stop offset="1" stop-color="#E560E3"></stop></linearGradient><linearGradient x1="15.103956834532372%" x2="15.103956834532372%" y1="72.6889175257732%" y2="96.03221649484537%" id="left-lower-cheek-gradient" gradientUnits="userSpaceOnUse"><stop stop-color="#906EF7"></stop><stop offset="1" stop-color="#575ADE"></stop></linearGradient><linearGradient x1="84.91570743405276%" x2="84.91570743405276%" y1="72.6889175257732%" y2="96.03221649484537%" id="right-lower-cheek-gradient" gradientUnits="userSpaceOnUse"><stop stop-color="#906EF7"></stop><stop offset="1" stop-color="#575ADE"></stop></linearGradient><linearGradient x1="68.7720623501199%" x2="78.03057553956835%" y1="63.14909793814433%" y2="63.14909793814433%" id="right-outer-eye-gradient" gradientUnits="userSpaceOnUse"><stop stop-color="#BA86F3"></stop><stop offset="0.5281" stop-color="#B786F4"></stop><stop offset="0.8987" stop-color="#AE86F5"></stop><stop offset="1" stop-color="#AA86F6"></stop></linearGradient><linearGradient x1="21.969424460431654%" x2="31.227937649880094%" y1="63.14909793814433%" y2="63.14909793814433%" id="left-outer-eye-gradient" gradientUnits="userSpaceOnUse"><stop stop-color="#BA86F3"></stop><stop offset="0.5281" stop-color="#B786F4"></stop><stop offset="0.8987" stop-color="#AE86F5"></stop><stop offset="1" stop-color="#AA86F6"></stop></linearGradient><linearGradient x1="50%" x2="4%" y1="30%" y2="4%" id="left-ear-gradient" gradientUnits="userSpaceOnUse"><stop stop-color="#541758"></stop><stop offset="0.4286" stop-color="#4F206C"></stop><stop offset="0.62" stop-color="#4D2577"></stop><stop offset="1" stop-color="#8B45B6"></stop></linearGradient><linearGradient x1="50%" x2="96%" y1="30%" y2="4%" id="right-ear-gradient" gradientUnits="userSpaceOnUse"><stop stop-color="#541758"></stop><stop offset="0.4286" stop-color="#4F206C"></stop><stop offset="0.62" stop-color="#4D2577"></stop><stop offset="1" stop-color="#8B45B6"></stop></linearGradient><linearGradient x1="30.914028776978412%" x2="44.56654676258992%" y1="72.83646907216496%" y2="72.83646907216496%" id="left-below-eye-gradient" gradientUnits="userSpaceOnUse"><stop stop-color="#C8A8F7"></stop><stop offset="1" stop-color="#BAAAFB"></stop></linearGradient><linearGradient x1="55.43345323741007%" x2="69.12517985611511%" y1="72.83646907216496%" y2="72.83646907216496%" id="right-below-eye-gradient" gradientUnits="userSpaceOnUse"><stop stop-color="#C8A8F7"></stop><stop offset="1" stop-color="#BAAAFB"></stop></linearGradient><linearGradient x1="16.02589928057554%" x2="16.02589928057554%" y1="43.35154639175258%" y2="72.85773195876288%" id="left-upper-cheek-gradient" gradientUnits="userSpaceOnUse"><stop stop-color="#B65FE5"></stop><stop offset="1" stop-color="#ADA2FC"></stop></linearGradient><linearGradient x1="83.99364508393285%" x2="83.99364508393285%" y1="43.35154639175258%" y2="72.85773195876288%" id="right-upper-cheek-gradient" gradientUnits="userSpaceOnUse"><stop stop-color="#B65FE5"></stop><stop offset="1" stop-color="#ADA2FC"></stop></linearGradient><linearGradient x1="50%" x2="50%" y1="12.790180412371136%" y2="81.08904639175258%" id="forehead-gradient" gradientUnits="userSpaceOnUse"><stop stop-color="#FB7FE4"></stop><stop offset="1" stop-color="#BCABFB"></stop></linearGradient><linearGradient x1="50%" x2="50%" y1="12.790180412371136%" y2="81.08904639175258%" id="back-gradient" gradientUnits="userSpaceOnUse"><stop stop-color="#FB7FE4"></stop><stop offset="1" stop-color="#5C5CE0"></stop></linearGradient></defs><polygon fill="url('#left-ear-gradient')" stroke="url('#left-ear-gradient')" points="293.30110931396484,145.58231516182423 244.09111404418945,134.5041901767254 241.63016510009766,123.28514501452446"></polygon><polygon fill="url('#left-ear-gradient')" stroke="url('#left-ear-gradient')" points="245.57653427124023,148.03935956954956 244.09111404418945,134.5041901767254 293.30110931396484,145.58231516182423"></polygon><polygon fill="url('#left-ear-gradient')" stroke="url('#left-ear-gradient')" points="245.57653427124023,148.03935956954956 293.30110931396484,145.58231516182423 252.13706588745117,167.47856955975294"></polygon><polygon fill="url('#left-ear-gradient')" stroke="url('#left-ear-gradient')" points="252.13706588745117,167.47856955975294 293.30110931396484,145.58231516182423 311.1781311035156,149.21402952075005"></polygon><polygon fill="url('#left-ear-gradient')" stroke="url('#left-ear-gradient')" points="290.01221466064453,83.73093509674072 293.30110931396484,145.58231516182423 241.63016510009766,123.28514501452446"></polygon><polygon fill="url('#left-ear-gradient')" stroke="url('#left-ear-gradient')" points="311.1781311035156,149.21402952075005 293.30110931396484,145.58231516182423 290.01221466064453,83.73093509674072"></polygon><polygon fill="url('#left-top-ear-gradient')" stroke="url('#left-top-ear-gradient')" points="350.1663007736206,109.37721320986748 242.23917388916016,32.79738074541092 340.4614019393921,67.4529578089714"></polygon><polygon fill="url('#forehead-gradient')" stroke="url('#forehead-gradient')" points="393.64373302459717,107.75785768032074 350.1663007736206,109.37721320986748 340.4614019393921,67.4529578089714"></polygon><polygon fill="url('#forehead-gradient')" stroke="url('#forehead-gradient')" points="340.4614019393921,67.4529578089714 418.91252517700195,63.33549875020981 393.64373302459717,107.75785768032074"></polygon><polygon fill="url('#left-lower-cheek-gradient')" stroke="url('#left-lower-cheek-gradient')" points="307.8522205352783,276.6665049791336 250.90826797485352,299.1120416522026 233.72982788085938,231.9377502053976"></polygon><polygon fill="url('#back-gradient')" stroke="url('#back-gradient')" points="335.89397048950195,266.70465356111526 250.90826797485352,299.1120416522026 307.8522205352783,276.6665049791336"></polygon><polygon fill="url('#back-gradient')" stroke="url('#back-gradient')" points="307.8522205352783,276.6665049791336 328.91871643066406,267.81996113061905 335.89397048950195,266.70465356111526"></polygon><polygon fill="url('#left-ear-gradient')" stroke="url('#left-ear-gradient')" points="235.26145935058594,127.62156727910042 241.63016510009766,123.28514501452446 244.09111404418945,134.5041901767254"></polygon><polygon fill="url('#left-ear-gradient')" stroke="url('#left-ear-gradient')" points="245.57653427124023,148.03935956954956 236.85564422607422,139.71941113471985 244.09111404418945,134.5041901767254"></polygon><polygon fill="url('#left-upper-cheek-gradient')" stroke="url('#left-upper-cheek-gradient')" points="284.7652816772461,172.2229511886835 233.72982788085938,231.9377502053976 252.13706588745117,167.47856955975294"></polygon><polygon fill="url('#left-ear-gradient')" stroke="url('#left-ear-gradient')" points="252.13706588745117,167.47856955975294 239.6535415649414,151.99548295140266 245.57653427124023,148.03935956954956"></polygon><polygon fill="url('#left-ear-gradient')" stroke="url('#left-ear-gradient')" points="241.63016510009766,123.28514501452446 231.3713035583496,76.82616466283798 290.01221466064453,83.73093509674072"></polygon><polygon fill="url('#left-lower-cheek-gradient')" stroke="url('#left-lower-cheek-gradient')" points="233.72982788085938,231.9377502053976 274.79721450805664,225.62685987353325 307.8522205352783,276.6665049791336"></polygon><polygon fill="url('#left-upper-cheek-gradient')" stroke="url('#left-upper-cheek-gradient')" points="274.79721450805664,225.62685987353325 233.72982788085938,231.9377502053976 284.7652816772461,172.2229511886835"></polygon><polygon fill="url('#left-ear-gradient')" stroke="url('#left-ear-gradient')" points="290.01221466064453,83.73093509674072 350.1663007736206,109.37721320986748 311.1781311035156,149.21402952075005"></polygon><polygon fill="url('#left-upper-cheek-gradient')" stroke="url('#left-upper-cheek-gradient')" points="252.13706588745117,167.47856955975294 311.1781311035156,149.21402952075005 284.7652816772461,172.2229511886835"></polygon><polygon fill="url('#right-top-ear-gradient')" stroke="url('#right-top-ear-gradient')" points="505.69646072387695,15.051605343818665 393.64373302459717,107.75785768032074 418.91252517700195,63.33549875020981"></polygon><polygon fill="url('#left-ear-gradient')" stroke="url('#left-ear-gradient')" points="290.01221466064453,83.73093509674072 231.3713035583496,76.82616466283798 242.23917388916016,32.79738074541092"></polygon><polygon fill="rgb(223,117,84)" stroke="rgb(223,117,84)" points="424.85617446899414,269.71992909908295 426.72103786468506,268.46231853961945 416.57105827331543,287.6235986351967"></polygon><polygon fill="url('#left-ear-gradient')" stroke="url('#left-ear-gradient')" points="242.23917388916016,32.79738074541092 350.1663007736206,109.37721320986748 290.01221466064453,83.73093509674072"></polygon><polygon fill="url('#left-forehead-gradient')" stroke="url('#left-forehead-gradient')" points="311.1781311035156,149.21402952075005 350.1663007736206,109.37721320986748 345.4085054397583,172.09374126791954"></polygon><polygon fill="url('#left-forehead-gradient')" stroke="url('#left-forehead-gradient')" points="345.4085054397583,172.09374126791954 284.7652816772461,172.2229511886835 311.1781311035156,149.21402952075005"></polygon><polygon fill="url('#right-ear-gradient')" stroke="url('#right-ear-gradient')" points="467.9808654785156,141.25908172130585 521.3656311035156,113.89741158485413 518.2944831848145,126.45905819535255"></polygon><polygon fill="url('#right-ear-gradient')" stroke="url('#right-ear-gradient')" points="521.3656311035156,113.89741158485413 467.9808654785156,141.25908172130585 459.99444007873535,75.65992677211761"></polygon><polygon fill="url('#right-ear-gradient')" stroke="url('#right-ear-gradient')" points="459.99444007873535,75.65992677211761 467.9808654785156,141.25908172130585 442.6143493652344,146.1560839265585"></polygon><polygon fill="url('#right-ear-gradient')" stroke="url('#right-ear-gradient')" points="508.4976997375488,163.12594078481197 442.6143493652344,146.1560839265585 467.9808654785156,141.25908172130585"></polygon><polygon fill="url('#right-ear-gradient')" stroke="url('#right-ear-gradient')" points="516.1506271362305,141.47160118818283 508.4976997375488,163.12594078481197 467.9808654785156,141.25908172130585"></polygon><polygon fill="url('#right-ear-gradient')" stroke="url('#right-ear-gradient')" points="516.1506271362305,141.47160118818283 467.9808654785156,141.25908172130585 518.2944831848145,126.45905819535255"></polygon><polygon fill="url('#right-ear-gradient')" stroke="url('#right-ear-gradient')" points="442.6143493652344,146.1560839265585 393.64373302459717,107.75785768032074 459.99444007873535,75.65992677211761"></polygon><polygon fill="url('#right-lower-cheek-gradient')" stroke="url('#right-lower-cheek-gradient')" points="536.45068359375,234.07576194405556 518.7631645202637,307.6920602917671 435.328857421875,279.6217027902603"></polygon><polygon fill="url('#right-upper-cheek-gradient')" stroke="url('#right-upper-cheek-gradient')" points="508.4976997375488,163.12594078481197 453.6785888671875,169.68417437374592 442.6143493652344,146.1560839265585"></polygon><polygon fill="url('#right-forehead-gradient')" stroke="url('#right-forehead-gradient')" points="442.6143493652344,146.1560839265585 453.6785888671875,169.68417437374592 381.4060780405998,171.5628256201744"></polygon><polygon fill="url('#right-forehead-gradient')" stroke="url('#right-forehead-gradient')" points="381.4060780405998,171.5628256201744 393.64373302459717,107.75785768032074 442.6143493652344,146.1560839265585"></polygon><polygon fill="url('#forehead-gradient')" stroke="url('#forehead-gradient')" points="350.1663007736206,109.37721320986748 393.64373302459717,107.75785768032074 381.4060780405998,171.5628256201744"></polygon><polygon fill="url('#forehead-gradient')" stroke="url('#forehead-gradient')" points="381.4060780405998,171.5628256201744 345.4085054397583,172.09374126791954 350.1663007736206,109.37721320986748"></polygon><polygon fill="url('#right-ear-gradient')" stroke="url('#right-ear-gradient')" points="527.891773223877,118.25297918915749 518.2944831848145,126.45905819535255 521.3656311035156,113.89741158485413"></polygon><polygon fill="url('#right-ear-gradient')" stroke="url('#right-ear-gradient')" points="516.1506271362305,141.47160118818283 518.2944831848145,126.45905819535255 525.6700744628906,131.78649258613586"></polygon><polygon fill="url('#right-ear-gradient')" stroke="url('#right-ear-gradient')" points="508.4976997375488,163.12594078481197 516.1506271362305,141.47160118818283 522.1795349121094,145.54039706289768"></polygon><polygon fill="url('#right-upper-cheek-gradient')" stroke="url('#right-upper-cheek-gradient')" points="453.6785888671875,169.68417437374592 508.4976997375488,163.12594078481197 536.45068359375,234.07576194405556"></polygon><polygon fill="url('#right-ear-gradient')" stroke="url('#right-ear-gradient')" points="459.99444007873535,75.65992677211761 393.64373302459717,107.75785768032074 505.69646072387695,15.051605343818665"></polygon><polygon fill="url('#right-ear-gradient')" stroke="url('#right-ear-gradient')" points="459.99444007873535,75.65992677211761 527.333667755127,61.69775265455246 521.3656311035156,113.89741158485413"></polygon><polygon fill="url('#right-lower-cheek-gradient')" stroke="url('#right-lower-cheek-gradient')" points="435.328857421875,279.6217027902603 463.91724014282227,226.50177204608917 536.45068359375,234.07576194405556"></polygon><polygon fill="url('#right-upper-cheek-gradient')" stroke="url('#right-upper-cheek-gradient')" points="453.6785888671875,169.68417437374592 536.45068359375,234.07576194405556 463.91724014282227,226.50177204608917"></polygon><polygon fill="url('#left-middle-cheek-gradient')" stroke="url('#left-middle-cheek-gradient')" points="307.8522205352783,276.6665049791336 274.79721450805664,225.62685987353325 307.10364532470703,224.3825226277113"></polygon><polygon fill="url('#right-ear-gradient')" stroke="url('#right-ear-gradient')" points="505.69646072387695,15.051605343818665 527.333667755127,61.69775265455246 459.99444007873535,75.65992677211761"></polygon><polygon fill="url('#left-outer-eye-gradient')" stroke="url('#left-outer-eye-gradient')" points="284.7652816772461,172.2229511886835 307.6073055267334,197.6745512187481 307.10364532470703,224.3825226277113"></polygon><polygon fill="url('#left-upper-cheek-gradient')" stroke="url('#left-upper-cheek-gradient')" points="284.7652816772461,172.2229511886835 307.10364532470703,224.3825226277113 274.79721450805664,225.62685987353325"></polygon><polygon fill="rgb(156,90,221)" stroke="rgb(156,90,221)" points="307.6073055267334,197.6745512187481 284.7652816772461,172.2229511886835 345.4085054397583,172.09374126791954"></polygon><polygon fill="rgb(223,117,84)" stroke="rgb(223,117,84)" points="315.8147850036621,284.98968654870987 307.8522205352783,276.6665049791336 323.7521495819092,282.52573934197426"></polygon><polygon fill="rgb(255,159,90)" stroke="rgb(255,159,90)" points="319.30392837524414,268.16824972629547 323.7521495819092,282.52573934197426 307.8522205352783,276.6665049791336"></polygon><polygon fill="url('#right-middle-cheek-gradient')" stroke="url('#right-middle-cheek-gradient')" points="435.328857421875,279.6217027902603 421.4267120361328,224.85328450798988 463.91724014282227,226.50177204608917"></polygon><polygon fill="rgb(255,159,90)" stroke="rgb(255,159,90)" points="307.8522205352783,276.6665049791336 321.9910640716553,240.47933453321457 319.30392837524414,268.16824972629547"></polygon><polygon fill="rgb(147,131,250)" stroke="rgb(147,131,250)" points="321.9910640716553,240.47933453321457 307.8522205352783,276.6665049791336 307.10364532470703,224.3825226277113"></polygon><polygon fill="rgb(156,90,221)" stroke="rgb(156,90,221)" points="345.4085054397583,172.09374126791954 330.2267818450928,186.41032701171935 307.6073055267334,197.6745512187481"></polygon><polygon fill="rgb(22,22,22)" stroke="rgb(22,22,22)" points="337.6705513000488,206.0022276341915 307.6073055267334,197.6745512187481 330.2267818450928,186.41032701171935"></polygon><polygon fill="url('#left-below-eye-gradient')" stroke="url('#left-below-eye-gradient')" points="307.10364532470703,224.3825226277113 307.6073055267334,197.6745512187481 337.6705513000488,206.0022276341915"></polygon><polygon fill="rgb(156,90,221)" stroke="rgb(156,90,221)" points="330.2267818450928,186.41032701171935 345.4085054397583,172.09374126791954 337.6705513000488,206.0022276341915"></polygon><polygon fill="rgb(156,90,221)" stroke="rgb(156,90,221)" points="381.4060780405998,171.5628256201744 453.6785888671875,169.68417437374592 423.2980442047119,197.02402366697788"></polygon><polygon fill="url('#right-outer-eye-gradient')" stroke="url('#right-outer-eye-gradient')" points="453.6785888671875,169.68417437374592 421.4267120361328,224.85328450798988 423.2980442047119,197.02402366697788"></polygon><polygon fill="url('#right-upper-cheek-gradient')" stroke="url('#right-upper-cheek-gradient')" points="463.91724014282227,226.50177204608917 421.4267120361328,224.85328450798988 453.6785888671875,169.68417437374592"></polygon><polygon fill="url('#left-inner-eye-gradient')" stroke="url('#left-inner-eye-gradient')" points="337.6705513000488,206.0022276341915 345.4085054397583,172.09374126791954 343.50955295562744,191.88039530999959"></polygon><polygon fill="url('#forehead-gradient')" stroke="url('#forehead-gradient')" points="343.50955295562744,191.88039530999959 345.4085054397583,172.09374126791954 381.4060780405998,171.5628256201744"></polygon><polygon fill="rgb(223,117,84)" stroke="rgb(223,117,84)" points="374.2674458026886,283.79735827445984 435.328857421875,279.6217027902603 416.57105827331543,287.6235986351967"></polygon><polygon fill="rgb(156,90,221)" stroke="rgb(156,90,221)" points="423.2980442047119,197.02402366697788 398.30857515335083,185.7532501090318 381.4060780405998,171.5628256201744"></polygon><polygon fill="rgb(223,117,84)" stroke="rgb(223,117,84)" points="323.7521495819092,282.52573934197426 324.9254322052002,293.9250120520592 315.8147850036621,284.98968654870987"></polygon><polygon fill="rgb(255,159,90)" stroke="rgb(255,159,90)" points="370.193172454834,269.18602815270424 435.328857421875,279.6217027902603 374.2674458026886,283.79735827445984"></polygon><polygon fill="rgb(156,90,221)" stroke="rgb(156,90,221)" points="398.30857515335083,185.7532501090318 386.1962540745735,205.87810257822275 381.4060780405998,171.5628256201744"></polygon><polygon fill="rgb(255,159,90)" stroke="rgb(255,159,90)" points="435.328857421875,279.6217027902603 370.193172454834,269.18602815270424 366.29904985427856,240.91954216361046"></polygon><polygon fill="rgb(147,131,250)" stroke="rgb(147,131,250)" points="366.29904985427856,240.91954216361046 421.4267120361328,224.85328450798988 435.328857421875,279.6217027902603"></polygon><polygon fill="rgb(22,22,22)" stroke="rgb(22,22,22)" points="386.1962540745735,205.87810257822275 398.30857515335083,185.7532501090318 423.2980442047119,197.02402366697788"></polygon><polygon fill="url('#forehead-gradient')" stroke="url('#forehead-gradient')" points="381.4060780405998,171.5628256201744 376.5779106616974,191.6278834026307 343.50955295562744,191.88039530999959"></polygon><polygon fill="url('#right-inner-eye-gradient')" stroke="url('#right-inner-eye-gradient')" points="386.1962540745735,205.87810257822275 376.5779106616974,191.6278834026307 381.4060780405998,171.5628256201744"></polygon><polygon fill="url('#right-below-eye-gradient')" stroke="url('#right-below-eye-gradient')" points="421.4267120361328,224.85328450798988 386.1962540745735,205.87810257822275 423.2980442047119,197.02402366697788"></polygon><polygon fill="url('#left-below-eye-gradient')" stroke="url('#left-below-eye-gradient')" points="321.9910640716553,240.47933453321457 307.10364532470703,224.3825226277113 337.6705513000488,206.0022276341915"></polygon><polygon fill="rgb(223,117,84)" stroke="rgb(223,117,84)" points="416.57105827331543,287.6235986351967 371.0127110481262,295.2750542163849 374.2674458026886,283.79735827445984"></polygon><polygon fill="url('#left-inner-eye-gradient')" stroke="url('#left-inner-eye-gradient')" points="343.50955295562744,191.88039530999959 327.6496181488037,236.46456974744797 337.6705513000488,206.0022276341915"></polygon><polygon fill="url('#left-below-eye-gradient')" stroke="url('#left-below-eye-gradient')" points="337.6705513000488,206.0022276341915 327.6496181488037,236.46456974744797 321.9910640716553,240.47933453321457"></polygon><polygon fill="url('#right-below-eye-gradient')" stroke="url('#right-below-eye-gradient')" points="386.1962540745735,205.87810257822275 421.4267120361328,224.85328450798988 366.29904985427856,240.91954216361046"></polygon><polygon fill="url('#right-inner-eye-gradient')" stroke="url('#right-inner-eye-gradient')" points="376.5779106616974,191.6278834026307 386.1962540745735,205.87810257822275 360.5193600654602,236.7426925599575"></polygon><polygon fill="url('#right-below-eye-gradient')" stroke="url('#right-below-eye-gradient')" points="366.29904985427856,240.91954216361046 360.5193600654602,236.7426925599575 386.1962540745735,205.87810257822275"></polygon><polygon fill="url('#forehead-gradient')" stroke="url('#forehead-gradient')" points="343.50955295562744,191.88039530999959 376.5779106616974,191.6278834026307 360.5193600654602,236.7426925599575"></polygon><polygon fill="url('#forehead-gradient')" stroke="url('#forehead-gradient')" points="360.5193600654602,236.7426925599575 327.6496181488037,236.46456974744797 343.50955295562744,191.88039530999959"></polygon><polygon fill="rgb(223,117,84)" stroke="rgb(223,117,84)" points="319.30392837524414,268.16824972629547 320.22314071655273,264.1312078535557 324.9254322052002,293.9250120520592"></polygon><polygon fill="rgb(223,117,84)" stroke="rgb(223,117,84)" points="324.9254322052002,293.9250120520592 320.22314071655273,264.1312078535557 365.1498456001282,264.9635936021805"></polygon><polygon fill="rgb(223,117,84)" stroke="rgb(223,117,84)" points="365.1498456001282,264.9635936021805 371.0127110481262,295.2750542163849 324.9254322052002,293.9250120520592"></polygon><polygon fill="rgb(223,117,84)" stroke="rgb(223,117,84)" points="370.193172454834,269.18602815270424 374.2674458026886,283.79735827445984 371.0127110481262,295.2750542163849"></polygon><polygon fill="rgb(223,117,84)" stroke="rgb(223,117,84)" points="371.0127110481262,295.2750542163849 365.1498456001282,264.9635936021805 370.193172454834,269.18602815270424"></polygon><polygon fill="rgb(22,22,22)" stroke="rgb(22,22,22)" points="320.22314071655273,264.1312078535557 319.30392837524414,268.16824972629547 321.9910640716553,240.47933453321457"></polygon><polygon fill="rgb(22,22,22)" stroke="rgb(22,22,22)" points="323.2873477935791,239.47989597916603 319.6619167327881,243.6583339869976 321.9910640716553,240.47933453321457"></polygon><polygon fill="rgb(22,22,22)" stroke="rgb(22,22,22)" points="323.2873477935791,239.47989597916603 327.6496181488037,236.46456974744797 360.5193600654602,236.7426925599575"></polygon><polygon fill="rgb(22,22,22)" stroke="rgb(22,22,22)" points="366.29904985427856,240.91954216361046 370.193172454834,269.18602815270424 365.1498456001282,264.9635936021805"></polygon><polygon fill="rgb(22,22,22)" stroke="rgb(22,22,22)" points="365.1498456001282,264.9635936021805 320.22314071655273,264.1312078535557 319.6619167327881,243.6583339869976"></polygon><polygon fill="rgb(22,22,22)" stroke="rgb(22,22,22)" points="360.5193600654602,236.7426925599575 356.7115116119385,239.79970595240593 323.2873477935791,239.47989597916603"></polygon><polygon fill="rgb(22,22,22)" stroke="rgb(22,22,22)" points="356.7115116119385,239.79970595240593 360.5193600654602,236.7426925599575 366.29904985427856,240.91954216361046"></polygon><polygon fill="rgb(22,22,22)" stroke="rgb(22,22,22)" points="365.1498456001282,264.9635936021805 360.39149951934814,244.11034762859344 366.29904985427856,240.91954216361046"></polygon><polygon fill="rgb(22,22,22)" stroke="rgb(22,22,22)" points="366.29904985427856,240.91954216361046 360.39149951934814,244.11034762859344 356.7115116119385,239.79970595240593"></polygon><polygon fill="rgb(22,22,22)" stroke="rgb(22,22,22)" points="319.6619167327881,243.6583339869976 360.39149951934814,244.11034762859344 365.1498456001282,264.9635936021805"></polygon><polygon fill="rgb(22,22,22)" stroke="rgb(22,22,22)" points="319.6619167327881,243.6583339869976 323.2873477935791,239.47989597916603 356.7115116119385,239.79970595240593"></polygon><polygon fill="rgb(22,22,22)" stroke="rgb(22,22,22)" points="356.7115116119385,239.79970595240593 360.39149951934814,244.11034762859344 319.6619167327881,243.6583339869976"></polygon></svg>