<svg width="33" height="34" viewBox="0 0 33 34" fill="none" xmlns="http://www.w3.org/2000/svg">
<path d="M27.005 18.0704C26.7025 18.0704 26.3862 17.9742 26.0837 17.9054C25.4711 17.7706 24.8691 17.5914 24.2825 17.3692C23.6446 17.1371 22.9434 17.1492 22.3139 17.403C21.6844 17.6569 21.171 18.1346 20.8725 18.7442L20.57 19.3629C19.2309 18.6176 18.0003 17.6924 16.9125 16.6129C15.8331 15.5251 14.9078 14.2945 14.1625 12.9554L14.74 12.5704C15.3496 12.2719 15.8273 11.7585 16.0811 11.129C16.335 10.4995 16.347 9.79832 16.115 9.16044C15.8954 8.57295 15.7162 7.97113 15.5787 7.35919C15.51 7.05669 15.455 6.74044 15.4137 6.42419C15.2468 5.45566 14.7395 4.57858 13.9832 3.95089C13.227 3.3232 12.2714 2.98615 11.2887 3.00044H7.16373C6.57115 2.99487 5.98432 3.11705 5.44321 3.35867C4.90209 3.60028 4.41938 3.95564 4.02795 4.40057C3.63651 4.8455 3.34554 5.36955 3.17484 5.93704C3.00414 6.50453 2.95771 7.10214 3.03873 7.68919C3.77124 13.4496 6.40202 18.8018 10.5155 22.9003C14.629 26.9989 19.9907 29.6101 25.7537 30.3217H26.2762C27.2902 30.3232 28.2692 29.9512 29.0262 29.2767C29.4612 28.8876 29.8087 28.4107 30.0457 27.8774C30.2828 27.3441 30.4039 26.7665 30.4012 26.1829V22.0579C30.3844 21.1028 30.0366 20.1832 29.4172 19.456C28.7978 18.7288 27.9452 18.239 27.005 18.0704ZM27.6925 26.3204C27.6922 26.5157 27.6504 26.7086 27.5698 26.8864C27.4892 27.0642 27.3717 27.2228 27.225 27.3517C27.0718 27.4851 26.8922 27.5846 26.6979 27.6439C26.5036 27.7031 26.299 27.7207 26.0975 27.6954C20.948 27.0352 16.1648 24.6794 12.5025 20.9996C8.84012 17.3198 6.50704 12.5255 5.87123 7.37294C5.85014 7.17156 5.8697 6.968 5.92875 6.77432C5.9878 6.58064 6.08513 6.4008 6.21498 6.24544C6.34383 6.09877 6.50244 5.98122 6.68025 5.90061C6.85806 5.82 7.051 5.77818 7.24623 5.77794H11.3712C11.691 5.77082 12.0032 5.8754 12.2542 6.07366C12.5051 6.27192 12.6791 6.55147 12.7462 6.86419C12.8012 7.24002 12.87 7.61127 12.9525 7.97794C13.1107 8.70291 13.3222 9.41525 13.585 10.1092L11.66 11.0029C11.4954 11.0785 11.3473 11.1857 11.2243 11.3186C11.1013 11.4515 11.0058 11.6074 10.9432 11.7773C10.8805 11.9473 10.8521 12.1279 10.8595 12.3088C10.8669 12.4897 10.91 12.6674 10.9862 12.8317C12.9661 17.0698 16.3731 20.4768 20.6112 22.4567C20.946 22.5942 21.3215 22.5942 21.6562 22.4567C21.8277 22.3954 21.9853 22.3006 22.1198 22.1778C22.2544 22.0551 22.3632 21.9068 22.44 21.7417L23.2925 19.8167C24.0036 20.0699 24.729 20.2811 25.465 20.4492C25.8316 20.5317 26.2029 20.6004 26.5787 20.6554C26.8914 20.7225 27.171 20.8965 27.3693 21.1475C27.5675 21.3985 27.6721 21.7107 27.665 22.0304L27.6925 26.3204Z" fill="white"/>
</svg>
