<svg width="250" height="250" viewBox="0 0 250 250" fill="none" xmlns="http://www.w3.org/2000/svg">
<g clip-path="url(#clip0_53_2487)">
<path d="M125 215.625C93.75 215.625 65.625 200 50 175C50 150 100 135.938 125 135.938C150 135.938 200 150 200 175C184.375 198.438 156.25 215.625 125 215.625ZM125 37.5C145.312 37.5 162.5 54.6875 162.5 75C162.5 95.3125 145.312 112.5 125 112.5C104.688 112.5 87.5 95.3125 87.5 75C87.5 54.6875 104.688 37.5 125 37.5ZM125 0C56.25 0 0 56.25 0 125C0 193.75 56.25 250 125 250C193.75 250 250 193.75 250 125C250 56.25 193.75 0 125 0Z" fill="#5C74E1"/>
</g>
<defs>
<clipPath id="clip0_53_2487">
<rect width="250" height="250" fill="white"/>
</clipPath>
</defs>
</svg>
